<?xml version="1.0" encoding="utf-8" standalone="no"?>
<!DOCTYPE svg PUBLIC "-//W3C//DTD SVG 1.1//EN"
  "http://www.w3.org/Graphics/SVG/1.1/DTD/svg11.dtd">
<!-- Created with matplotlib (https://matplotlib.org/) -->
<svg height="144pt" version="1.1" viewBox="0 0 1036.8 144" width="1036.8pt" xmlns="http://www.w3.org/2000/svg" xmlns:xlink="http://www.w3.org/1999/xlink">
 <metadata>
  <rdf:RDF xmlns:cc="http://creativecommons.org/ns#" xmlns:dc="http://purl.org/dc/elements/1.1/" xmlns:rdf="http://www.w3.org/1999/02/22-rdf-syntax-ns#">
   <cc:Work>
    <dc:type rdf:resource="http://purl.org/dc/dcmitype/StillImage"/>
    <dc:date>2022-03-18T16:51:39.584932</dc:date>
    <dc:format>image/svg+xml</dc:format>
    <dc:creator>
     <cc:Agent>
      <dc:title>Matplotlib v3.3.2, https://matplotlib.org/</dc:title>
     </cc:Agent>
    </dc:creator>
   </cc:Work>
  </rdf:RDF>
 </metadata>
 <defs>
  <style type="text/css">*{stroke-linecap:butt;stroke-linejoin:round;}</style>
 </defs>
 <g id="figure_1">
  <g id="patch_1">
   <path d="M 0 144 
L 1036.8 144 
L 1036.8 0 
L 0 0 
z
" style="fill:none;"/>
  </g>
  <g id="axes_1">
   <g id="patch_2">
    <path clip-path="url(#pa47499e80f)" d="M 134.56 98.2764 
L 144.48 98.2764 
L 144.48 25.7964 
L 134.56 25.7964 
z
" style="fill:none;stroke:#000000;stroke-linejoin:miter;stroke-width:0.5;"/>
   </g>
   <g id="patch_3">
    <path clip-path="url(#pa47499e80f)" d="M 263.52 98.2764 
L 273.44 98.2764 
L 273.44 25.7964 
L 263.52 25.7964 
z
" style="fill:none;stroke:#000000;stroke-linejoin:miter;stroke-width:0.5;"/>
   </g>
   <g id="patch_4">
    <path clip-path="url(#pa47499e80f)" d="M 452 98.2764 
L 461.92 98.2764 
L 461.92 25.7964 
L 452 25.7964 
z
" style="fill:none;stroke:#000000;stroke-linejoin:miter;stroke-width:0.5;"/>
   </g>
   <g id="patch_5">
    <path clip-path="url(#pa47499e80f)" d="M 541.28 98.2764 
L 551.2 98.2764 
L 551.2 25.7964 
L 541.28 25.7964 
z
" style="fill:none;stroke:#000000;stroke-linejoin:miter;stroke-width:0.5;"/>
   </g>
   <g id="line2d_1">
    <path clip-path="url(#pa47499e80f)" d="M 541.28 35.4 
L 571.04 35.4 
" style="fill:none;stroke:#ffa500;stroke-width:4;"/>
   </g>
   <g id="line2d_2">
    <path clip-path="url(#pa47499e80f)" d="M 461.92 35.4 
L 531.36 35.4 
" style="fill:none;stroke:#008000;stroke-width:8;"/>
   </g>
   <g id="line2d_3">
    <path clip-path="url(#pa47499e80f)" d="M 540.784 35.4 
" style="fill:none;"/>
    <defs>
     <path d="M -9.75 6.5 
L 0 0 
L -9.75 -6.5 
" id="mf17915b848" style="stroke:#008000;stroke-linejoin:miter;"/>
    </defs>
    <g clip-path="url(#pa47499e80f)">
     <use style="fill:#008000;stroke:#008000;stroke-linejoin:miter;" x="540.784" xlink:href="#mf17915b848" y="35.4"/>
    </g>
   </g>
   <g id="line2d_4">
    <path clip-path="url(#pa47499e80f)" d="M 442.08 35.4 
L 452 35.4 
" style="fill:none;stroke:#ffa500;stroke-width:4;"/>
   </g>
   <g id="line2d_5">
    <path clip-path="url(#pa47499e80f)" d="M 432.16 35.4 
L 442.08 35.4 
" style="fill:none;stroke:#0000ff;stroke-width:8;"/>
   </g>
   <g id="line2d_6">
    <path clip-path="url(#pa47499e80f)" d="M 412.32 35.4 
L 432.16 35.4 
" style="fill:none;stroke:#ffa500;stroke-width:4;"/>
   </g>
   <g id="line2d_7">
    <path clip-path="url(#pa47499e80f)" d="M 342.88 35.4 
L 402.4 35.4 
" style="fill:none;stroke:#008000;stroke-width:8;"/>
   </g>
   <g id="line2d_8">
    <path clip-path="url(#pa47499e80f)" d="M 411.824 35.4 
" style="fill:none;"/>
    <g clip-path="url(#pa47499e80f)">
     <use style="fill:#008000;stroke:#008000;stroke-linejoin:miter;" x="411.824" xlink:href="#mf17915b848" y="35.4"/>
    </g>
   </g>
   <g id="line2d_9">
    <path clip-path="url(#pa47499e80f)" d="M 332.96 35.4 
L 342.88 35.4 
" style="fill:none;stroke:#ffa500;stroke-width:4;"/>
   </g>
   <g id="line2d_10">
    <path clip-path="url(#pa47499e80f)" d="M 323.04 35.4 
L 332.96 35.4 
" style="fill:none;stroke:#0000ff;stroke-width:8;"/>
   </g>
   <g id="line2d_11">
    <path clip-path="url(#pa47499e80f)" d="M 283.36 35.4 
L 323.04 35.4 
" style="fill:none;stroke:#ffa500;stroke-width:4;"/>
   </g>
   <g id="line2d_12">
    <path clip-path="url(#pa47499e80f)" d="M 283.36 34.041 
L 273.44 36.759 
" style="fill:none;stroke:#ff0000;stroke-width:6;"/>
   </g>
   <g id="line2d_13">
    <path clip-path="url(#pa47499e80f)" d="M 263.52 36.759 
L 253.6 34.041 
L 243.68 36.759 
L 233.76 34.041 
L 223.84 36.759 
L 213.92 34.041 
L 204 36.759 
L 194.08 34.041 
L 184.16 36.759 
L 174.24 34.041 
L 164.32 36.759 
L 154.4 34.041 
L 144.48 36.759 
" style="fill:none;stroke:#ff0000;stroke-width:6;"/>
   </g>
   <g id="line2d_14">
    <path clip-path="url(#pa47499e80f)" d="M 134.56 35.4 
L 144.48 35.4 
" style="fill:none;stroke:#ffa500;stroke-width:4;"/>
   </g>
   <g id="line2d_15">
    <path clip-path="url(#pa47499e80f)" d="M 551.2 85.23 
L 571.04 85.23 
" style="fill:none;stroke:#ffa500;stroke-width:4;"/>
   </g>
   <g id="line2d_16">
    <path clip-path="url(#pa47499e80f)" d="M 461.92 85.23 
L 531.36 85.23 
" style="fill:none;stroke:#008000;stroke-width:8;"/>
   </g>
   <g id="line2d_17">
    <path clip-path="url(#pa47499e80f)" d="M 540.784 85.23 
" style="fill:none;"/>
    <g clip-path="url(#pa47499e80f)">
     <use style="fill:#008000;stroke:#008000;stroke-linejoin:miter;" x="540.784" xlink:href="#mf17915b848" y="85.23"/>
    </g>
   </g>
   <g id="line2d_18">
    <path clip-path="url(#pa47499e80f)" d="M 412.32 85.23 
L 461.92 85.23 
" style="fill:none;stroke:#ffa500;stroke-width:4;"/>
   </g>
   <g id="line2d_19">
    <path clip-path="url(#pa47499e80f)" d="M 342.88 85.23 
L 402.4 85.23 
" style="fill:none;stroke:#008000;stroke-width:8;"/>
   </g>
   <g id="line2d_20">
    <path clip-path="url(#pa47499e80f)" d="M 411.824 85.23 
" style="fill:none;"/>
    <g clip-path="url(#pa47499e80f)">
     <use style="fill:#008000;stroke:#008000;stroke-linejoin:miter;" x="411.824" xlink:href="#mf17915b848" y="85.23"/>
    </g>
   </g>
   <g id="line2d_21">
    <path clip-path="url(#pa47499e80f)" d="M 332.96 85.23 
L 342.88 85.23 
" style="fill:none;stroke:#ffa500;stroke-width:4;"/>
   </g>
   <g id="line2d_22">
    <path clip-path="url(#pa47499e80f)" d="M 323.04 85.23 
L 332.96 85.23 
" style="fill:none;stroke:#0000ff;stroke-width:8;"/>
   </g>
   <g id="line2d_23">
    <path clip-path="url(#pa47499e80f)" d="M 263.52 85.23 
L 323.04 85.23 
" style="fill:none;stroke:#ffa500;stroke-width:4;"/>
   </g>
   <g id="line2d_24">
    <path clip-path="url(#pa47499e80f)" d="M 263.52 83.871 
L 253.6 86.589 
L 243.68 83.871 
L 233.76 86.589 
L 223.84 83.871 
L 213.92 86.589 
L 204 83.871 
L 194.08 86.589 
L 184.16 83.871 
L 174.24 86.589 
L 164.32 83.871 
L 154.4 86.589 
L 144.48 83.871 
" style="fill:none;stroke:#ff0000;stroke-width:6;"/>
   </g>
   <g id="line2d_25">
    <path clip-path="url(#pa47499e80f)" d="M 144.48 20.904 
L 263.52 20.904 
" style="fill:none;stroke:#8b0000;"/>
   </g>
   <g id="line2d_26">
    <path clip-path="url(#pa47499e80f)" d="M 461.92 20.904 
L 541.28 20.904 
" style="fill:none;stroke:#00008b;"/>
   </g>
   <g id="text_1">
    <!-- A -->
    <g transform="translate(104.8 58.05)scale(0.16 -0.16)">
     <defs>
      <path d="M 30.078125 64.203125 
L 19.671875 26.90625 
L 40.484375 26.90625 
z
M 24.125 72.90625 
L 36.078125 72.90625 
L 58.40625 0 
L 48.1875 0 
L 42.828125 19 
L 17.28125 19 
L 12.015625 0 
L 1.8125 0 
z
" id="DejaVuSansMono-65"/>
     </defs>
     <use xlink:href="#DejaVuSansMono-65"/>
    </g>
   </g>
   <g id="text_2">
    <!-- - -->
    <g transform="translate(134.56 58.05)scale(0.16 -0.16)">
     <defs>
      <path d="M 14.703125 35.890625 
L 45.515625 35.890625 
L 45.515625 21.6875 
L 14.703125 21.6875 
z
" id="DejaVuSansMono-Bold-45"/>
     </defs>
     <use xlink:href="#DejaVuSansMono-Bold-45"/>
    </g>
   </g>
   <g id="text_3">
    <!-- R -->
    <g style="fill:#8b0000;" transform="translate(144.48 58.05)scale(0.16 -0.16)">
     <defs>
      <path d="M 37.109375 34.421875 
Q 40.921875 33.453125 43.609375 30.734375 
Q 46.296875 28.03125 50.296875 19.921875 
L 60.203125 0 
L 49.609375 0 
L 40.921875 18.40625 
Q 37.15625 26.265625 34.15625 28.53125 
Q 31.15625 30.8125 26.3125 30.8125 
L 16.890625 30.8125 
L 16.890625 0 
L 6.984375 0 
L 6.984375 72.90625 
L 27.296875 72.90625 
Q 39.3125 72.90625 45.703125 67.484375 
Q 52.09375 62.0625 52.09375 51.8125 
Q 52.09375 44.578125 48.15625 40.015625 
Q 44.234375 35.453125 37.109375 34.421875 
z
M 16.890625 64.796875 
L 16.890625 38.921875 
L 27.6875 38.921875 
Q 34.765625 38.921875 38.234375 42.09375 
Q 41.703125 45.265625 41.703125 51.8125 
Q 41.703125 58.109375 38.015625 61.453125 
Q 34.328125 64.796875 27.296875 64.796875 
z
" id="DejaVuSansMono-82"/>
     </defs>
     <use xlink:href="#DejaVuSansMono-82"/>
    </g>
   </g>
   <g id="text_4">
    <!-- A -->
    <g transform="translate(154.4 58.05)scale(0.16 -0.16)">
     <defs>
      <path d="M 30.078125 59.71875 
L 23.296875 29.890625 
L 36.921875 29.890625 
z
M 21.296875 72.90625 
L 38.921875 72.90625 
L 58.59375 0 
L 44.1875 0 
L 39.703125 18.015625 
L 20.40625 18.015625 
L 16.015625 0 
L 1.609375 0 
z
" id="DejaVuSansMono-Bold-65"/>
     </defs>
     <use xlink:href="#DejaVuSansMono-Bold-65"/>
    </g>
   </g>
   <g id="text_5">
    <!-- K -->
    <g transform="translate(164.32 58.05)scale(0.16 -0.16)">
     <defs>
      <path d="M 5.71875 72.90625 
L 20.125 72.90625 
L 20.125 44.09375 
L 42.671875 72.90625 
L 58.984375 72.90625 
L 35.984375 44.1875 
L 59.8125 0 
L 43.796875 0 
L 26.515625 32.8125 
L 20.125 24.703125 
L 20.125 0 
L 5.71875 0 
z
" id="DejaVuSansMono-Bold-75"/>
     </defs>
     <use xlink:href="#DejaVuSansMono-Bold-75"/>
    </g>
   </g>
   <g id="text_6">
    <!-- L -->
    <g transform="translate(174.24 58.05)scale(0.16 -0.16)">
     <defs>
      <path d="M 10.984375 0 
L 10.984375 72.90625 
L 25.390625 72.90625 
L 25.390625 12.703125 
L 56.203125 12.703125 
L 56.203125 0 
z
" id="DejaVuSansMono-Bold-76"/>
     </defs>
     <use xlink:href="#DejaVuSansMono-Bold-76"/>
    </g>
   </g>
   <g id="text_7">
    <!-- P -->
    <g transform="translate(184.16 58.05)scale(0.16 -0.16)">
     <defs>
      <path d="M 22.3125 60.796875 
L 22.3125 39.40625 
L 28.21875 39.40625 
Q 35.296875 39.40625 38.15625 41.796875 
Q 41.015625 44.1875 41.015625 50.09375 
Q 41.015625 56 38.15625 58.390625 
Q 35.296875 60.796875 28.21875 60.796875 
z
M 7.90625 72.90625 
L 27.6875 72.90625 
Q 42.78125 72.90625 49.390625 67.53125 
Q 56 62.15625 56 50.09375 
Q 56 38.03125 49.390625 32.65625 
Q 42.78125 27.296875 27.6875 27.296875 
L 22.3125 27.296875 
L 22.3125 0 
L 7.90625 0 
z
" id="DejaVuSansMono-Bold-80"/>
     </defs>
     <use xlink:href="#DejaVuSansMono-Bold-80"/>
    </g>
   </g>
   <g id="text_8">
    <!-- L -->
    <g transform="translate(194.08 58.05)scale(0.16 -0.16)">
     <use xlink:href="#DejaVuSansMono-Bold-76"/>
    </g>
   </g>
   <g id="text_9">
    <!-- K -->
    <g transform="translate(204 58.05)scale(0.16 -0.16)">
     <use xlink:href="#DejaVuSansMono-Bold-75"/>
    </g>
   </g>
   <g id="text_10">
    <!-- E -->
    <g transform="translate(213.92 58.05)scale(0.16 -0.16)">
     <defs>
      <path d="M 53.609375 0 
L 8.203125 0 
L 8.203125 72.90625 
L 53.609375 72.90625 
L 53.609375 60.203125 
L 22.609375 60.203125 
L 22.609375 44.484375 
L 50.6875 44.484375 
L 50.6875 31.78125 
L 22.609375 31.78125 
L 22.609375 12.703125 
L 53.609375 12.703125 
z
" id="DejaVuSansMono-Bold-69"/>
     </defs>
     <use xlink:href="#DejaVuSansMono-Bold-69"/>
    </g>
   </g>
   <g id="text_11">
    <!-- K -->
    <g transform="translate(223.84 58.05)scale(0.16 -0.16)">
     <use xlink:href="#DejaVuSansMono-Bold-75"/>
    </g>
   </g>
   <g id="text_12">
    <!-- K -->
    <g transform="translate(233.76 58.05)scale(0.16 -0.16)">
     <use xlink:href="#DejaVuSansMono-Bold-75"/>
    </g>
   </g>
   <g id="text_13">
    <!-- L -->
    <g transform="translate(243.68 58.05)scale(0.16 -0.16)">
     <use xlink:href="#DejaVuSansMono-Bold-76"/>
    </g>
   </g>
   <g id="text_14">
    <!-- T -->
    <g transform="translate(253.6 58.05)scale(0.16 -0.16)">
     <defs>
      <path d="M 37.3125 0 
L 22.90625 0 
L 22.90625 60.296875 
L 4.390625 60.296875 
L 4.390625 72.90625 
L 55.8125 72.90625 
L 55.8125 60.296875 
L 37.3125 60.296875 
z
" id="DejaVuSansMono-Bold-84"/>
     </defs>
     <use xlink:href="#DejaVuSansMono-Bold-84"/>
    </g>
   </g>
   <g id="text_15">
    <!-- A -->
    <g style="fill:#8b0000;" transform="translate(263.52 58.05)scale(0.16 -0.16)">
     <use xlink:href="#DejaVuSansMono-65"/>
    </g>
   </g>
   <g id="text_16">
    <!-- T -->
    <g transform="translate(273.44 58.05)scale(0.16 -0.16)">
     <use xlink:href="#DejaVuSansMono-Bold-84"/>
    </g>
   </g>
   <g id="text_17">
    <!-- A -->
    <g transform="translate(283.36 58.05)scale(0.16 -0.16)">
     <use xlink:href="#DejaVuSansMono-Bold-65"/>
    </g>
   </g>
   <g id="text_18">
    <!-- N -->
    <g transform="translate(293.28 58.05)scale(0.16 -0.16)">
     <defs>
      <path d="M 5.8125 72.90625 
L 21.296875 72.90625 
L 41.609375 19.921875 
L 41.609375 72.90625 
L 54.296875 72.90625 
L 54.296875 0 
L 38.921875 0 
L 18.5 52.984375 
L 18.5 0 
L 5.8125 0 
z
" id="DejaVuSansMono-Bold-78"/>
     </defs>
     <use xlink:href="#DejaVuSansMono-Bold-78"/>
    </g>
   </g>
   <g id="text_19">
    <!-- Y -->
    <g transform="translate(303.2 58.05)scale(0.16 -0.16)">
     <defs>
      <path d="M 0.390625 72.90625 
L 15.921875 72.90625 
L 30.078125 43.609375 
L 44.28125 72.90625 
L 59.8125 72.90625 
L 37.3125 28.71875 
L 37.3125 0 
L 22.90625 0 
L 22.90625 28.71875 
z
" id="DejaVuSansMono-Bold-89"/>
     </defs>
     <use xlink:href="#DejaVuSansMono-Bold-89"/>
    </g>
   </g>
   <g id="text_20">
    <!-- H -->
    <g transform="translate(313.12 58.05)scale(0.16 -0.16)">
     <defs>
      <path d="M 6.6875 72.90625 
L 21.09375 72.90625 
L 21.09375 45.125 
L 39.109375 45.125 
L 39.109375 72.90625 
L 53.515625 72.90625 
L 53.515625 0 
L 39.109375 0 
L 39.109375 32.421875 
L 21.09375 32.421875 
L 21.09375 0 
L 6.6875 0 
z
" id="DejaVuSansMono-Bold-72"/>
     </defs>
     <use xlink:href="#DejaVuSansMono-Bold-72"/>
    </g>
   </g>
   <g id="text_21">
    <!-- P -->
    <g transform="translate(323.04 58.05)scale(0.16 -0.16)">
     <use xlink:href="#DejaVuSansMono-Bold-80"/>
    </g>
   </g>
   <g id="text_22">
    <!-- G -->
    <g transform="translate(332.96 58.05)scale(0.16 -0.16)">
     <defs>
      <path d="M 42.578125 13.1875 
L 42.578125 27.09375 
L 32.71875 27.09375 
L 32.71875 39.203125 
L 55.171875 39.203125 
L 55.171875 5.8125 
Q 51.03125 2.25 46.015625 0.40625 
Q 41.015625 -1.421875 35.296875 -1.421875 
Q 21.140625 -1.421875 13.421875 8.421875 
Q 5.71875 18.265625 5.71875 36.375 
Q 5.71875 54.78125 13.5 64.5 
Q 21.296875 74.21875 35.984375 74.21875 
Q 40.375 74.21875 44.625 72.96875 
Q 48.875 71.734375 52.59375 69.390625 
L 52.59375 53.421875 
Q 49.5625 57.328125 45.625 59.296875 
Q 41.703125 61.28125 37.015625 61.28125 
Q 28.8125 61.28125 24.75 55.09375 
Q 20.703125 48.921875 20.703125 36.375 
Q 20.703125 24.21875 24.609375 17.875 
Q 28.515625 11.53125 35.984375 11.53125 
Q 38.234375 11.53125 39.890625 11.9375 
Q 41.546875 12.359375 42.578125 13.1875 
z
" id="DejaVuSansMono-Bold-71"/>
     </defs>
     <use xlink:href="#DejaVuSansMono-Bold-71"/>
    </g>
   </g>
   <g id="text_23">
    <!-- I -->
    <g transform="translate(342.88 58.05)scale(0.16 -0.16)">
     <defs>
      <path d="M 8.40625 60.203125 
L 8.40625 72.90625 
L 51.8125 72.90625 
L 51.8125 60.203125 
L 37.3125 60.203125 
L 37.3125 12.703125 
L 51.8125 12.703125 
L 51.8125 0 
L 8.40625 0 
L 8.40625 12.703125 
L 22.90625 12.703125 
L 22.90625 60.203125 
z
" id="DejaVuSansMono-Bold-73"/>
     </defs>
     <use xlink:href="#DejaVuSansMono-Bold-73"/>
    </g>
   </g>
   <g id="text_24">
    <!-- R -->
    <g transform="translate(352.8 58.05)scale(0.16 -0.16)">
     <defs>
      <path d="M 39.40625 34.421875 
Q 41.546875 33.984375 43.140625 32.390625 
Q 44.734375 30.8125 47.015625 26.21875 
L 60.203125 0 
L 44.390625 0 
L 35.59375 18.40625 
Q 35.203125 19.1875 34.578125 20.5625 
Q 30.71875 28.8125 25.484375 28.8125 
L 20.90625 28.8125 
L 20.90625 0 
L 6.5 0 
L 6.5 72.90625 
L 27.296875 72.90625 
Q 41.359375 72.90625 47.484375 67.921875 
Q 53.609375 62.9375 53.609375 51.703125 
Q 53.609375 44.1875 49.953125 39.734375 
Q 46.296875 35.296875 39.40625 34.421875 
z
M 20.90625 60.796875 
L 20.90625 40.921875 
L 27.6875 40.921875 
Q 33.59375 40.921875 36.15625 43.234375 
Q 38.71875 45.5625 38.71875 50.875 
Q 38.71875 56.203125 36.171875 58.5 
Q 33.640625 60.796875 27.6875 60.796875 
z
" id="DejaVuSansMono-Bold-82"/>
     </defs>
     <use xlink:href="#DejaVuSansMono-Bold-82"/>
    </g>
   </g>
   <g id="text_25">
    <!-- Y -->
    <g transform="translate(362.72 58.05)scale(0.16 -0.16)">
     <use xlink:href="#DejaVuSansMono-Bold-89"/>
    </g>
   </g>
   <g id="text_26">
    <!-- I -->
    <g transform="translate(372.64 58.05)scale(0.16 -0.16)">
     <use xlink:href="#DejaVuSansMono-Bold-73"/>
    </g>
   </g>
   <g id="text_27">
    <!-- M -->
    <g transform="translate(382.56 58.05)scale(0.16 -0.16)">
     <defs>
      <path d="M 4.203125 72.90625 
L 21.390625 72.90625 
L 30.078125 40.921875 
L 38.71875 72.90625 
L 56 72.90625 
L 56 0 
L 43.609375 0 
L 43.609375 58.40625 
L 35.890625 26.515625 
L 24.421875 26.515625 
L 16.609375 58.40625 
L 16.609375 0 
L 4.203125 0 
z
" id="DejaVuSansMono-Bold-77"/>
     </defs>
     <use xlink:href="#DejaVuSansMono-Bold-77"/>
    </g>
   </g>
   <g id="text_28">
    <!-- T -->
    <g transform="translate(392.48 58.05)scale(0.16 -0.16)">
     <use xlink:href="#DejaVuSansMono-Bold-84"/>
    </g>
   </g>
   <g id="text_29">
    <!-- G -->
    <g transform="translate(402.4 58.05)scale(0.16 -0.16)">
     <use xlink:href="#DejaVuSansMono-Bold-71"/>
    </g>
   </g>
   <g id="text_30">
    <!-- Y -->
    <g transform="translate(412.32 58.05)scale(0.16 -0.16)">
     <use xlink:href="#DejaVuSansMono-Bold-89"/>
    </g>
   </g>
   <g id="text_31">
    <!-- S -->
    <g transform="translate(422.24 58.05)scale(0.16 -0.16)">
     <defs>
      <path d="M 24.90625 31.984375 
Q 14.015625 36.140625 10.15625 40.703125 
Q 6.296875 45.265625 6.296875 52.984375 
Q 6.296875 62.890625 12.640625 68.546875 
Q 19 74.21875 30.078125 74.21875 
Q 35.109375 74.21875 40.140625 73.0625 
Q 45.171875 71.921875 50.09375 69.671875 
L 50.09375 55.609375 
Q 45.453125 58.890625 40.671875 60.59375 
Q 35.890625 62.3125 31.203125 62.3125 
Q 25.984375 62.3125 23.1875 60.203125 
Q 20.40625 58.109375 20.40625 54.203125 
Q 20.40625 51.171875 22.4375 49.1875 
Q 24.46875 47.21875 30.90625 44.828125 
L 37.109375 42.484375 
Q 45.90625 39.265625 50.046875 33.9375 
Q 54.203125 28.609375 54.203125 20.515625 
Q 54.203125 9.46875 47.671875 4.015625 
Q 41.15625 -1.421875 27.984375 -1.421875 
Q 22.5625 -1.421875 17.109375 -0.125 
Q 11.671875 1.171875 6.59375 3.71875 
L 6.59375 18.609375 
Q 12.359375 14.5 17.75 12.5 
Q 23.140625 10.5 28.421875 10.5 
Q 33.734375 10.5 36.65625 12.90625 
Q 39.59375 15.328125 39.59375 19.671875 
Q 39.59375 22.953125 37.640625 25.40625 
Q 35.6875 27.875 31.984375 29.296875 
z
" id="DejaVuSansMono-Bold-83"/>
     </defs>
     <use xlink:href="#DejaVuSansMono-Bold-83"/>
    </g>
   </g>
   <g id="text_32">
    <!-- A -->
    <g transform="translate(432.16 58.05)scale(0.16 -0.16)">
     <use xlink:href="#DejaVuSansMono-Bold-65"/>
    </g>
   </g>
   <g id="text_33">
    <!-- K -->
    <g transform="translate(442.08 58.05)scale(0.16 -0.16)">
     <use xlink:href="#DejaVuSansMono-Bold-75"/>
    </g>
   </g>
   <g id="text_34">
    <!-- Y -->
    <g style="fill:#8b0000;" transform="translate(452 58.05)scale(0.16 -0.16)">
     <defs>
      <path d="M 1.8125 72.90625 
L 12.3125 72.90625 
L 30.078125 40.71875 
L 47.796875 72.90625 
L 58.40625 72.90625 
L 35.015625 32.71875 
L 35.015625 0 
L 25.09375 0 
L 25.09375 32.71875 
z
" id="DejaVuSansMono-89"/>
     </defs>
     <use xlink:href="#DejaVuSansMono-89"/>
    </g>
   </g>
   <g id="text_35">
    <!-- I -->
    <g transform="translate(461.92 58.05)scale(0.16 -0.16)">
     <use xlink:href="#DejaVuSansMono-Bold-73"/>
    </g>
   </g>
   <g id="text_36">
    <!-- Y -->
    <g transform="translate(471.84 58.05)scale(0.16 -0.16)">
     <use xlink:href="#DejaVuSansMono-Bold-89"/>
    </g>
   </g>
   <g id="text_37">
    <!-- S -->
    <g transform="translate(481.76 58.05)scale(0.16 -0.16)">
     <use xlink:href="#DejaVuSansMono-Bold-83"/>
    </g>
   </g>
   <g id="text_38">
    <!-- S -->
    <g transform="translate(491.68 58.05)scale(0.16 -0.16)">
     <use xlink:href="#DejaVuSansMono-Bold-83"/>
    </g>
   </g>
   <g id="text_39">
    <!-- T -->
    <g transform="translate(501.6 58.05)scale(0.16 -0.16)">
     <use xlink:href="#DejaVuSansMono-Bold-84"/>
    </g>
   </g>
   <g id="text_40">
    <!-- Y -->
    <g transform="translate(511.52 58.05)scale(0.16 -0.16)">
     <use xlink:href="#DejaVuSansMono-Bold-89"/>
    </g>
   </g>
   <g id="text_41">
    <!-- A -->
    <g transform="translate(521.44 58.05)scale(0.16 -0.16)">
     <use xlink:href="#DejaVuSansMono-Bold-65"/>
    </g>
   </g>
   <g id="text_42">
    <!-- R -->
    <g style="fill:#8b0000;" transform="translate(531.36 58.05)scale(0.16 -0.16)">
     <use xlink:href="#DejaVuSansMono-82"/>
    </g>
   </g>
   <g id="text_43">
    <!-- - -->
    <g transform="translate(541.28 58.05)scale(0.16 -0.16)">
     <use xlink:href="#DejaVuSansMono-Bold-45"/>
    </g>
   </g>
   <g id="text_44">
    <!-- F -->
    <g transform="translate(551.2 58.05)scale(0.16 -0.16)">
     <defs>
      <path d="M 54.296875 60.203125 
L 23.296875 60.203125 
L 23.296875 44.484375 
L 51.515625 44.484375 
L 51.515625 31.78125 
L 23.296875 31.78125 
L 23.296875 0 
L 8.890625 0 
L 8.890625 72.90625 
L 54.296875 72.90625 
z
" id="DejaVuSansMono-Bold-70"/>
     </defs>
     <use xlink:href="#DejaVuSansMono-Bold-70"/>
    </g>
   </g>
   <g id="text_45">
    <!-- R -->
    <g transform="translate(561.12 58.05)scale(0.16 -0.16)">
     <use xlink:href="#DejaVuSansMono-Bold-82"/>
    </g>
   </g>
   <g id="text_46">
    <!-- B -->
    <g transform="translate(104.8 76.17)scale(0.16 -0.16)">
     <defs>
      <path d="M 18.015625 34.8125 
L 18.015625 8.109375 
L 29.6875 8.109375 
Q 38.28125 8.109375 41.9375 11.109375 
Q 45.609375 14.109375 45.609375 21 
Q 45.609375 28.125 41.75 31.46875 
Q 37.890625 34.8125 29.6875 34.8125 
z
M 18.015625 64.796875 
L 18.015625 42.828125 
L 29.5 42.828125 
Q 36.625 42.828125 39.8125 45.5625 
Q 43.015625 48.296875 43.015625 54.390625 
Q 43.015625 59.90625 39.859375 62.34375 
Q 36.71875 64.796875 29.5 64.796875 
z
M 8.109375 72.90625 
L 29.6875 72.90625 
Q 40.875 72.90625 46.921875 68.0625 
Q 52.984375 63.234375 52.984375 54.390625 
Q 52.984375 47.703125 49.78125 43.84375 
Q 46.578125 39.984375 40.1875 39.015625 
Q 47.359375 37.9375 51.4375 32.875 
Q 55.515625 27.828125 55.515625 20.015625 
Q 55.515625 10.109375 49.015625 5.046875 
Q 42.53125 0 29.6875 0 
L 8.109375 0 
z
" id="DejaVuSansMono-66"/>
     </defs>
     <use xlink:href="#DejaVuSansMono-66"/>
    </g>
   </g>
   <g id="text_47">
    <!-- - -->
    <g transform="translate(134.56 76.17)scale(0.16 -0.16)">
     <use xlink:href="#DejaVuSansMono-Bold-45"/>
    </g>
   </g>
   <g id="text_48">
    <!-- K -->
    <g style="fill:#8b0000;" transform="translate(144.48 76.17)scale(0.16 -0.16)">
     <defs>
      <path d="M 6.6875 72.90625 
L 16.609375 72.90625 
L 16.609375 40.484375 
L 47.40625 72.90625 
L 58.984375 72.90625 
L 30.609375 43.109375 
L 59.8125 0 
L 47.90625 0 
L 24.125 36.53125 
L 16.609375 28.515625 
L 16.609375 0 
L 6.6875 0 
z
" id="DejaVuSansMono-75"/>
     </defs>
     <use xlink:href="#DejaVuSansMono-75"/>
    </g>
   </g>
   <g id="text_49">
    <!-- A -->
    <g transform="translate(154.4 76.17)scale(0.16 -0.16)">
     <use xlink:href="#DejaVuSansMono-Bold-65"/>
    </g>
   </g>
   <g id="text_50">
    <!-- K -->
    <g transform="translate(164.32 76.17)scale(0.16 -0.16)">
     <use xlink:href="#DejaVuSansMono-Bold-75"/>
    </g>
   </g>
   <g id="text_51">
    <!-- L -->
    <g transform="translate(174.24 76.17)scale(0.16 -0.16)">
     <use xlink:href="#DejaVuSansMono-Bold-76"/>
    </g>
   </g>
   <g id="text_52">
    <!-- P -->
    <g transform="translate(184.16 76.17)scale(0.16 -0.16)">
     <use xlink:href="#DejaVuSansMono-Bold-80"/>
    </g>
   </g>
   <g id="text_53">
    <!-- L -->
    <g transform="translate(194.08 76.17)scale(0.16 -0.16)">
     <use xlink:href="#DejaVuSansMono-Bold-76"/>
    </g>
   </g>
   <g id="text_54">
    <!-- K -->
    <g transform="translate(204 76.17)scale(0.16 -0.16)">
     <use xlink:href="#DejaVuSansMono-Bold-75"/>
    </g>
   </g>
   <g id="text_55">
    <!-- E -->
    <g transform="translate(213.92 76.17)scale(0.16 -0.16)">
     <use xlink:href="#DejaVuSansMono-Bold-69"/>
    </g>
   </g>
   <g id="text_56">
    <!-- K -->
    <g transform="translate(223.84 76.17)scale(0.16 -0.16)">
     <use xlink:href="#DejaVuSansMono-Bold-75"/>
    </g>
   </g>
   <g id="text_57">
    <!-- K -->
    <g transform="translate(233.76 76.17)scale(0.16 -0.16)">
     <use xlink:href="#DejaVuSansMono-Bold-75"/>
    </g>
   </g>
   <g id="text_58">
    <!-- L -->
    <g transform="translate(243.68 76.17)scale(0.16 -0.16)">
     <use xlink:href="#DejaVuSansMono-Bold-76"/>
    </g>
   </g>
   <g id="text_59">
    <!-- T -->
    <g transform="translate(253.6 76.17)scale(0.16 -0.16)">
     <use xlink:href="#DejaVuSansMono-Bold-84"/>
    </g>
   </g>
   <g id="text_60">
    <!-- R -->
    <g style="fill:#8b0000;" transform="translate(263.52 76.17)scale(0.16 -0.16)">
     <use xlink:href="#DejaVuSansMono-82"/>
    </g>
   </g>
   <g id="text_61">
    <!-- T -->
    <g transform="translate(273.44 76.17)scale(0.16 -0.16)">
     <use xlink:href="#DejaVuSansMono-Bold-84"/>
    </g>
   </g>
   <g id="text_62">
    <!-- A -->
    <g transform="translate(283.36 76.17)scale(0.16 -0.16)">
     <use xlink:href="#DejaVuSansMono-Bold-65"/>
    </g>
   </g>
   <g id="text_63">
    <!-- N -->
    <g transform="translate(293.28 76.17)scale(0.16 -0.16)">
     <use xlink:href="#DejaVuSansMono-Bold-78"/>
    </g>
   </g>
   <g id="text_64">
    <!-- Y -->
    <g transform="translate(303.2 76.17)scale(0.16 -0.16)">
     <use xlink:href="#DejaVuSansMono-Bold-89"/>
    </g>
   </g>
   <g id="text_65">
    <!-- H -->
    <g transform="translate(313.12 76.17)scale(0.16 -0.16)">
     <use xlink:href="#DejaVuSansMono-Bold-72"/>
    </g>
   </g>
   <g id="text_66">
    <!-- P -->
    <g transform="translate(323.04 76.17)scale(0.16 -0.16)">
     <use xlink:href="#DejaVuSansMono-Bold-80"/>
    </g>
   </g>
   <g id="text_67">
    <!-- G -->
    <g transform="translate(332.96 76.17)scale(0.16 -0.16)">
     <use xlink:href="#DejaVuSansMono-Bold-71"/>
    </g>
   </g>
   <g id="text_68">
    <!-- I -->
    <g transform="translate(342.88 76.17)scale(0.16 -0.16)">
     <use xlink:href="#DejaVuSansMono-Bold-73"/>
    </g>
   </g>
   <g id="text_69">
    <!-- R -->
    <g transform="translate(352.8 76.17)scale(0.16 -0.16)">
     <use xlink:href="#DejaVuSansMono-Bold-82"/>
    </g>
   </g>
   <g id="text_70">
    <!-- Y -->
    <g transform="translate(362.72 76.17)scale(0.16 -0.16)">
     <use xlink:href="#DejaVuSansMono-Bold-89"/>
    </g>
   </g>
   <g id="text_71">
    <!-- I -->
    <g transform="translate(372.64 76.17)scale(0.16 -0.16)">
     <use xlink:href="#DejaVuSansMono-Bold-73"/>
    </g>
   </g>
   <g id="text_72">
    <!-- M -->
    <g transform="translate(382.56 76.17)scale(0.16 -0.16)">
     <use xlink:href="#DejaVuSansMono-Bold-77"/>
    </g>
   </g>
   <g id="text_73">
    <!-- T -->
    <g transform="translate(392.48 76.17)scale(0.16 -0.16)">
     <use xlink:href="#DejaVuSansMono-Bold-84"/>
    </g>
   </g>
   <g id="text_74">
    <!-- G -->
    <g transform="translate(402.4 76.17)scale(0.16 -0.16)">
     <use xlink:href="#DejaVuSansMono-Bold-71"/>
    </g>
   </g>
   <g id="text_75">
    <!-- Y -->
    <g transform="translate(412.32 76.17)scale(0.16 -0.16)">
     <use xlink:href="#DejaVuSansMono-Bold-89"/>
    </g>
   </g>
   <g id="text_76">
    <!-- S -->
    <g transform="translate(422.24 76.17)scale(0.16 -0.16)">
     <use xlink:href="#DejaVuSansMono-Bold-83"/>
    </g>
   </g>
   <g id="text_77">
    <!-- A -->
    <g transform="translate(432.16 76.17)scale(0.16 -0.16)">
     <use xlink:href="#DejaVuSansMono-Bold-65"/>
    </g>
   </g>
   <g id="text_78">
    <!-- K -->
    <g transform="translate(442.08 76.17)scale(0.16 -0.16)">
     <use xlink:href="#DejaVuSansMono-Bold-75"/>
    </g>
   </g>
   <g id="text_79">
    <!-- R -->
    <g style="fill:#8b0000;" transform="translate(452 76.17)scale(0.16 -0.16)">
     <use xlink:href="#DejaVuSansMono-82"/>
    </g>
   </g>
   <g id="text_80">
    <!-- I -->
    <g transform="translate(461.92 76.17)scale(0.16 -0.16)">
     <use xlink:href="#DejaVuSansMono-Bold-73"/>
    </g>
   </g>
   <g id="text_81">
    <!-- Y -->
    <g transform="translate(471.84 76.17)scale(0.16 -0.16)">
     <use xlink:href="#DejaVuSansMono-Bold-89"/>
    </g>
   </g>
   <g id="text_82">
    <!-- S -->
    <g transform="translate(481.76 76.17)scale(0.16 -0.16)">
     <use xlink:href="#DejaVuSansMono-Bold-83"/>
    </g>
   </g>
   <g id="text_83">
    <!-- S -->
    <g transform="translate(491.68 76.17)scale(0.16 -0.16)">
     <use xlink:href="#DejaVuSansMono-Bold-83"/>
    </g>
   </g>
   <g id="text_84">
    <!-- T -->
    <g transform="translate(501.6 76.17)scale(0.16 -0.16)">
     <use xlink:href="#DejaVuSansMono-Bold-84"/>
    </g>
   </g>
   <g id="text_85">
    <!-- Y -->
    <g transform="translate(511.52 76.17)scale(0.16 -0.16)">
     <use xlink:href="#DejaVuSansMono-Bold-89"/>
    </g>
   </g>
   <g id="text_86">
    <!-- A -->
    <g transform="translate(521.44 76.17)scale(0.16 -0.16)">
     <use xlink:href="#DejaVuSansMono-Bold-65"/>
    </g>
   </g>
   <g id="text_87">
    <!-- Y -->
    <g style="fill:#8b0000;" transform="translate(531.36 76.17)scale(0.16 -0.16)">
     <use xlink:href="#DejaVuSansMono-89"/>
    </g>
   </g>
   <g id="text_88">
    <!-- - -->
    <g transform="translate(541.28 76.17)scale(0.16 -0.16)">
     <use xlink:href="#DejaVuSansMono-Bold-45"/>
    </g>
   </g>
   <g id="text_89">
    <!-- F -->
    <g transform="translate(551.2 76.17)scale(0.16 -0.16)">
     <use xlink:href="#DejaVuSansMono-Bold-70"/>
    </g>
   </g>
   <g id="text_90">
    <!-- R -->
    <g transform="translate(561.12 76.17)scale(0.16 -0.16)">
     <use xlink:href="#DejaVuSansMono-Bold-82"/>
    </g>
   </g>
   <g id="text_91">
    <!-- &gt; -->
    <g transform="translate(134.56 26.34)scale(0.16 -0.16)">
     <defs>
      <path d="M 4.296875 46.921875 
L 4.296875 55.8125 
L 55.90625 35.40625 
L 55.90625 27.296875 
L 4.296875 6.890625 
L 4.296875 15.828125 
L 45.796875 31.296875 
z
" id="DejaVuSansMono-62"/>
     </defs>
     <use xlink:href="#DejaVuSansMono-62"/>
    </g>
   </g>
   <g id="text_92">
    <!--   -->
    <g transform="translate(144.48 26.34)scale(0.16 -0.16)">
     <defs>
      <path id="DejaVuSansMono-32"/>
     </defs>
     <use xlink:href="#DejaVuSansMono-32"/>
    </g>
   </g>
   <g id="text_93">
    <!--   -->
    <g transform="translate(154.4 26.34)scale(0.16 -0.16)">
     <use xlink:href="#DejaVuSansMono-32"/>
    </g>
   </g>
   <g id="text_94">
    <!--   -->
    <g transform="translate(164.32 26.34)scale(0.16 -0.16)">
     <use xlink:href="#DejaVuSansMono-32"/>
    </g>
   </g>
   <g id="text_95">
    <!--   -->
    <g transform="translate(174.24 26.34)scale(0.16 -0.16)">
     <use xlink:href="#DejaVuSansMono-32"/>
    </g>
   </g>
   <g id="text_96">
    <!--   -->
    <g transform="translate(184.16 26.34)scale(0.16 -0.16)">
     <use xlink:href="#DejaVuSansMono-32"/>
    </g>
   </g>
   <g id="text_97">
    <!--   -->
    <g transform="translate(194.08 26.34)scale(0.16 -0.16)">
     <use xlink:href="#DejaVuSansMono-32"/>
    </g>
   </g>
   <g id="text_98">
    <!--   -->
    <g transform="translate(204 26.34)scale(0.16 -0.16)">
     <use xlink:href="#DejaVuSansMono-32"/>
    </g>
   </g>
   <g id="text_99">
    <!--   -->
    <g transform="translate(213.92 26.34)scale(0.16 -0.16)">
     <use xlink:href="#DejaVuSansMono-32"/>
    </g>
   </g>
   <g id="text_100">
    <!--   -->
    <g transform="translate(223.84 26.34)scale(0.16 -0.16)">
     <use xlink:href="#DejaVuSansMono-32"/>
    </g>
   </g>
   <g id="text_101">
    <!--   -->
    <g transform="translate(233.76 26.34)scale(0.16 -0.16)">
     <use xlink:href="#DejaVuSansMono-32"/>
    </g>
   </g>
   <g id="text_102">
    <!--   -->
    <g transform="translate(243.68 26.34)scale(0.16 -0.16)">
     <use xlink:href="#DejaVuSansMono-32"/>
    </g>
   </g>
   <g id="text_103">
    <!--   -->
    <g transform="translate(253.6 26.34)scale(0.16 -0.16)">
     <use xlink:href="#DejaVuSansMono-32"/>
    </g>
   </g>
   <g id="text_104">
    <!-- &lt; -->
    <g transform="translate(263.52 26.34)scale(0.16 -0.16)">
     <defs>
      <path d="M 55.90625 46.921875 
L 14.40625 31.296875 
L 55.90625 15.828125 
L 55.90625 6.890625 
L 4.296875 27.296875 
L 4.296875 35.40625 
L 55.90625 55.8125 
z
" id="DejaVuSansMono-60"/>
     </defs>
     <use xlink:href="#DejaVuSansMono-60"/>
    </g>
   </g>
   <g id="text_105">
    <!--   -->
    <g transform="translate(273.44 26.34)scale(0.16 -0.16)">
     <use xlink:href="#DejaVuSansMono-32"/>
    </g>
   </g>
   <g id="text_106">
    <!--   -->
    <g transform="translate(283.36 26.34)scale(0.16 -0.16)">
     <use xlink:href="#DejaVuSansMono-32"/>
    </g>
   </g>
   <g id="text_107">
    <!--   -->
    <g transform="translate(293.28 26.34)scale(0.16 -0.16)">
     <use xlink:href="#DejaVuSansMono-32"/>
    </g>
   </g>
   <g id="text_108">
    <!--   -->
    <g transform="translate(303.2 26.34)scale(0.16 -0.16)">
     <use xlink:href="#DejaVuSansMono-32"/>
    </g>
   </g>
   <g id="text_109">
    <!--   -->
    <g transform="translate(313.12 26.34)scale(0.16 -0.16)">
     <use xlink:href="#DejaVuSansMono-32"/>
    </g>
   </g>
   <g id="text_110">
    <!--   -->
    <g transform="translate(323.04 26.34)scale(0.16 -0.16)">
     <use xlink:href="#DejaVuSansMono-32"/>
    </g>
   </g>
   <g id="text_111">
    <!--   -->
    <g transform="translate(332.96 26.34)scale(0.16 -0.16)">
     <use xlink:href="#DejaVuSansMono-32"/>
    </g>
   </g>
   <g id="text_112">
    <!--   -->
    <g transform="translate(342.88 26.34)scale(0.16 -0.16)">
     <use xlink:href="#DejaVuSansMono-32"/>
    </g>
   </g>
   <g id="text_113">
    <!--   -->
    <g transform="translate(352.8 26.34)scale(0.16 -0.16)">
     <use xlink:href="#DejaVuSansMono-32"/>
    </g>
   </g>
   <g id="text_114">
    <!--   -->
    <g transform="translate(362.72 26.34)scale(0.16 -0.16)">
     <use xlink:href="#DejaVuSansMono-32"/>
    </g>
   </g>
   <g id="text_115">
    <!--   -->
    <g transform="translate(372.64 26.34)scale(0.16 -0.16)">
     <use xlink:href="#DejaVuSansMono-32"/>
    </g>
   </g>
   <g id="text_116">
    <!--   -->
    <g transform="translate(382.56 26.34)scale(0.16 -0.16)">
     <use xlink:href="#DejaVuSansMono-32"/>
    </g>
   </g>
   <g id="text_117">
    <!--   -->
    <g transform="translate(392.48 26.34)scale(0.16 -0.16)">
     <use xlink:href="#DejaVuSansMono-32"/>
    </g>
   </g>
   <g id="text_118">
    <!--   -->
    <g transform="translate(402.4 26.34)scale(0.16 -0.16)">
     <use xlink:href="#DejaVuSansMono-32"/>
    </g>
   </g>
   <g id="text_119">
    <!--   -->
    <g transform="translate(412.32 26.34)scale(0.16 -0.16)">
     <use xlink:href="#DejaVuSansMono-32"/>
    </g>
   </g>
   <g id="text_120">
    <!--   -->
    <g transform="translate(422.24 26.34)scale(0.16 -0.16)">
     <use xlink:href="#DejaVuSansMono-32"/>
    </g>
   </g>
   <g id="text_121">
    <!--   -->
    <g transform="translate(432.16 26.34)scale(0.16 -0.16)">
     <use xlink:href="#DejaVuSansMono-32"/>
    </g>
   </g>
   <g id="text_122">
    <!--   -->
    <g transform="translate(442.08 26.34)scale(0.16 -0.16)">
     <use xlink:href="#DejaVuSansMono-32"/>
    </g>
   </g>
   <g id="text_123">
    <!-- &lt; -->
    <g transform="translate(452 26.34)scale(0.16 -0.16)">
     <use xlink:href="#DejaVuSansMono-60"/>
    </g>
   </g>
   <g id="text_124">
    <!--   -->
    <g transform="translate(461.92 26.34)scale(0.16 -0.16)">
     <use xlink:href="#DejaVuSansMono-32"/>
    </g>
   </g>
   <g id="text_125">
    <!--   -->
    <g transform="translate(471.84 26.34)scale(0.16 -0.16)">
     <use xlink:href="#DejaVuSansMono-32"/>
    </g>
   </g>
   <g id="text_126">
    <!--   -->
    <g transform="translate(481.76 26.34)scale(0.16 -0.16)">
     <use xlink:href="#DejaVuSansMono-32"/>
    </g>
   </g>
   <g id="text_127">
    <!--   -->
    <g transform="translate(491.68 26.34)scale(0.16 -0.16)">
     <use xlink:href="#DejaVuSansMono-32"/>
    </g>
   </g>
   <g id="text_128">
    <!--   -->
    <g transform="translate(501.6 26.34)scale(0.16 -0.16)">
     <use xlink:href="#DejaVuSansMono-32"/>
    </g>
   </g>
   <g id="text_129">
    <!--   -->
    <g transform="translate(511.52 26.34)scale(0.16 -0.16)">
     <use xlink:href="#DejaVuSansMono-32"/>
    </g>
   </g>
   <g id="text_130">
    <!--   -->
    <g transform="translate(521.44 26.34)scale(0.16 -0.16)">
     <use xlink:href="#DejaVuSansMono-32"/>
    </g>
   </g>
   <g id="text_131">
    <!--   -->
    <g transform="translate(531.36 26.34)scale(0.16 -0.16)">
     <use xlink:href="#DejaVuSansMono-32"/>
    </g>
   </g>
   <g id="text_132">
    <!-- &gt; -->
    <g transform="translate(541.28 26.34)scale(0.16 -0.16)">
     <use xlink:href="#DejaVuSansMono-62"/>
    </g>
   </g>
   <g id="text_133">
    <!--   -->
    <g transform="translate(551.2 26.34)scale(0.16 -0.16)">
     <use xlink:href="#DejaVuSansMono-32"/>
    </g>
   </g>
   <g id="text_134">
    <!--   -->
    <g transform="translate(561.12 26.34)scale(0.16 -0.16)">
     <use xlink:href="#DejaVuSansMono-32"/>
    </g>
   </g>
   <g id="text_135">
    <!--   -->
    <g transform="translate(134.56 107.88)scale(0.16 -0.16)">
     <use xlink:href="#DejaVuSansMono-32"/>
    </g>
   </g>
   <g id="text_136">
    <!--   -->
    <g transform="translate(144.48 107.88)scale(0.16 -0.16)">
     <use xlink:href="#DejaVuSansMono-32"/>
    </g>
   </g>
   <g id="text_137">
    <!--   -->
    <g transform="translate(154.4 107.88)scale(0.16 -0.16)">
     <use xlink:href="#DejaVuSansMono-32"/>
    </g>
   </g>
   <g id="text_138">
    <!--   -->
    <g transform="translate(164.32 107.88)scale(0.16 -0.16)">
     <use xlink:href="#DejaVuSansMono-32"/>
    </g>
   </g>
   <g id="text_139">
    <!--   -->
    <g transform="translate(174.24 107.88)scale(0.16 -0.16)">
     <use xlink:href="#DejaVuSansMono-32"/>
    </g>
   </g>
   <g id="text_140">
    <!--   -->
    <g transform="translate(184.16 107.88)scale(0.16 -0.16)">
     <use xlink:href="#DejaVuSansMono-32"/>
    </g>
   </g>
   <g id="text_141">
    <!--   -->
    <g transform="translate(194.08 107.88)scale(0.16 -0.16)">
     <use xlink:href="#DejaVuSansMono-32"/>
    </g>
   </g>
   <g id="text_142">
    <!--   -->
    <g transform="translate(204 107.88)scale(0.16 -0.16)">
     <use xlink:href="#DejaVuSansMono-32"/>
    </g>
   </g>
   <g id="text_143">
    <!--   -->
    <g transform="translate(213.92 107.88)scale(0.16 -0.16)">
     <use xlink:href="#DejaVuSansMono-32"/>
    </g>
   </g>
   <g id="text_144">
    <!--   -->
    <g transform="translate(223.84 107.88)scale(0.16 -0.16)">
     <use xlink:href="#DejaVuSansMono-32"/>
    </g>
   </g>
   <g id="text_145">
    <!--   -->
    <g transform="translate(233.76 107.88)scale(0.16 -0.16)">
     <use xlink:href="#DejaVuSansMono-32"/>
    </g>
   </g>
   <g id="text_146">
    <!--   -->
    <g transform="translate(243.68 107.88)scale(0.16 -0.16)">
     <use xlink:href="#DejaVuSansMono-32"/>
    </g>
   </g>
   <g id="text_147">
    <!--   -->
    <g transform="translate(253.6 107.88)scale(0.16 -0.16)">
     <use xlink:href="#DejaVuSansMono-32"/>
    </g>
   </g>
   <g id="text_148">
    <!--   -->
    <g transform="translate(263.52 107.88)scale(0.16 -0.16)">
     <use xlink:href="#DejaVuSansMono-32"/>
    </g>
   </g>
   <g id="text_149">
    <!--   -->
    <g transform="translate(273.44 107.88)scale(0.16 -0.16)">
     <use xlink:href="#DejaVuSansMono-32"/>
    </g>
   </g>
   <g id="text_150">
    <!--   -->
    <g transform="translate(283.36 107.88)scale(0.16 -0.16)">
     <use xlink:href="#DejaVuSansMono-32"/>
    </g>
   </g>
   <g id="text_151">
    <!--   -->
    <g transform="translate(293.28 107.88)scale(0.16 -0.16)">
     <use xlink:href="#DejaVuSansMono-32"/>
    </g>
   </g>
   <g id="text_152">
    <!--   -->
    <g transform="translate(303.2 107.88)scale(0.16 -0.16)">
     <use xlink:href="#DejaVuSansMono-32"/>
    </g>
   </g>
   <g id="text_153">
    <!--   -->
    <g transform="translate(313.12 107.88)scale(0.16 -0.16)">
     <use xlink:href="#DejaVuSansMono-32"/>
    </g>
   </g>
   <g id="text_154">
    <!--   -->
    <g transform="translate(323.04 107.88)scale(0.16 -0.16)">
     <use xlink:href="#DejaVuSansMono-32"/>
    </g>
   </g>
   <g id="text_155">
    <!--   -->
    <g transform="translate(332.96 107.88)scale(0.16 -0.16)">
     <use xlink:href="#DejaVuSansMono-32"/>
    </g>
   </g>
   <g id="text_156">
    <!--   -->
    <g transform="translate(342.88 107.88)scale(0.16 -0.16)">
     <use xlink:href="#DejaVuSansMono-32"/>
    </g>
   </g>
   <g id="text_157">
    <!--   -->
    <g transform="translate(352.8 107.88)scale(0.16 -0.16)">
     <use xlink:href="#DejaVuSansMono-32"/>
    </g>
   </g>
   <g id="text_158">
    <!--   -->
    <g transform="translate(362.72 107.88)scale(0.16 -0.16)">
     <use xlink:href="#DejaVuSansMono-32"/>
    </g>
   </g>
   <g id="text_159">
    <!--   -->
    <g transform="translate(372.64 107.88)scale(0.16 -0.16)">
     <use xlink:href="#DejaVuSansMono-32"/>
    </g>
   </g>
   <g id="text_160">
    <!--   -->
    <g transform="translate(382.56 107.88)scale(0.16 -0.16)">
     <use xlink:href="#DejaVuSansMono-32"/>
    </g>
   </g>
   <g id="text_161">
    <!--   -->
    <g transform="translate(392.48 107.88)scale(0.16 -0.16)">
     <use xlink:href="#DejaVuSansMono-32"/>
    </g>
   </g>
   <g id="text_162">
    <!--   -->
    <g transform="translate(402.4 107.88)scale(0.16 -0.16)">
     <use xlink:href="#DejaVuSansMono-32"/>
    </g>
   </g>
   <g id="text_163">
    <!--   -->
    <g transform="translate(412.32 107.88)scale(0.16 -0.16)">
     <use xlink:href="#DejaVuSansMono-32"/>
    </g>
   </g>
   <g id="text_164">
    <!--   -->
    <g transform="translate(422.24 107.88)scale(0.16 -0.16)">
     <use xlink:href="#DejaVuSansMono-32"/>
    </g>
   </g>
   <g id="text_165">
    <!--   -->
    <g transform="translate(432.16 107.88)scale(0.16 -0.16)">
     <use xlink:href="#DejaVuSansMono-32"/>
    </g>
   </g>
   <g id="text_166">
    <!--   -->
    <g transform="translate(442.08 107.88)scale(0.16 -0.16)">
     <use xlink:href="#DejaVuSansMono-32"/>
    </g>
   </g>
   <g id="text_167">
    <!--   -->
    <g transform="translate(452 107.88)scale(0.16 -0.16)">
     <use xlink:href="#DejaVuSansMono-32"/>
    </g>
   </g>
   <g id="text_168">
    <!--   -->
    <g transform="translate(461.92 107.88)scale(0.16 -0.16)">
     <use xlink:href="#DejaVuSansMono-32"/>
    </g>
   </g>
   <g id="text_169">
    <!--   -->
    <g transform="translate(471.84 107.88)scale(0.16 -0.16)">
     <use xlink:href="#DejaVuSansMono-32"/>
    </g>
   </g>
   <g id="text_170">
    <!--   -->
    <g transform="translate(481.76 107.88)scale(0.16 -0.16)">
     <use xlink:href="#DejaVuSansMono-32"/>
    </g>
   </g>
   <g id="text_171">
    <!--   -->
    <g transform="translate(491.68 107.88)scale(0.16 -0.16)">
     <use xlink:href="#DejaVuSansMono-32"/>
    </g>
   </g>
   <g id="text_172">
    <!--   -->
    <g transform="translate(501.6 107.88)scale(0.16 -0.16)">
     <use xlink:href="#DejaVuSansMono-32"/>
    </g>
   </g>
   <g id="text_173">
    <!--   -->
    <g transform="translate(511.52 107.88)scale(0.16 -0.16)">
     <use xlink:href="#DejaVuSansMono-32"/>
    </g>
   </g>
   <g id="text_174">
    <!--   -->
    <g transform="translate(521.44 107.88)scale(0.16 -0.16)">
     <use xlink:href="#DejaVuSansMono-32"/>
    </g>
   </g>
   <g id="text_175">
    <!--   -->
    <g transform="translate(531.36 107.88)scale(0.16 -0.16)">
     <use xlink:href="#DejaVuSansMono-32"/>
    </g>
   </g>
   <g id="text_176">
    <!--   -->
    <g transform="translate(541.28 107.88)scale(0.16 -0.16)">
     <use xlink:href="#DejaVuSansMono-32"/>
    </g>
   </g>
   <g id="text_177">
    <!--   -->
    <g transform="translate(551.2 107.88)scale(0.16 -0.16)">
     <use xlink:href="#DejaVuSansMono-32"/>
    </g>
   </g>
   <g id="text_178">
    <!--   -->
    <g transform="translate(561.12 107.88)scale(0.16 -0.16)">
     <use xlink:href="#DejaVuSansMono-32"/>
    </g>
   </g>
  </g>
 </g>
 <defs>
  <clipPath id="pa47499e80f">
   <rect height="108.72" width="803.52" x="129.6" y="17.28"/>
  </clipPath>
 </defs>
</svg>
